<?xml version="1.0" standalone="no"?><!DOCTYPE svg PUBLIC "-//W3C//DTD SVG 1.1//EN" "http://www.w3.org/Graphics/SVG/1.1/DTD/svg11.dtd"><svg t="1547520103656" class="icon" style="" viewBox="0 0 1024 1024" version="1.1" xmlns="http://www.w3.org/2000/svg" p-id="6601" xmlns:xlink="http://www.w3.org/1999/xlink" width="32" height="32"><defs><style type="text/css"></style></defs><path d="M482 898c-60.6 0-119.4-11.9-174.8-35.3-53.5-22.6-101.5-55-142.7-96.2-41.2-41.2-73.6-89.2-96.2-142.7C44.9 568.4 33 509.6 33 449s11.9-119.4 35.3-174.8c22.6-53.5 55-101.5 96.2-142.7s89.2-73.6 142.7-96.2C362.6 11.9 421.4 0 482 0s119.4 11.9 174.8 35.3c53.5 22.6 101.5 55 142.7 96.2 41.2 41.2 73.6 89.2 96.2 142.7C919.1 329.6 931 388.4 931 449s-11.9 119.4-35.3 174.8c-22.6 53.5-55 101.5-96.2 142.7-41.2 41.2-89.2 73.6-142.7 96.2C601.4 886.1 542.6 898 482 898z m0-834C269.7 64 97 236.7 97 449s172.7 385 385 385 385-172.7 385-385S694.3 64 482 64z" fill="" p-id="6602"></path><path d="M689 481H275c-17.6 0-32-14.4-32-32s14.4-32 32-32h414c17.6 0 32 14.4 32 32s-14.4 32-32 32z" fill="" p-id="6603"></path><path d="M514 242v414c0 17.6-14.4 32-32 32s-32-14.4-32-32V242c0-17.6 14.4-32 32-32s32 14.4 32 32zM786.9 741.7l227.7 227.7c12.4 12.4 12.4 32.8 0 45.3-12.4 12.4-32.8 12.4-45.3 0L741.7 786.9c-12.4-12.4-12.4-32.8 0-45.3 12.4-12.4 32.8-12.4 45.2 0.1z" fill="" p-id="6604"></path></svg>