<?xml version="1.0" standalone="no"?><!DOCTYPE svg PUBLIC "-//W3C//DTD SVG 1.1//EN" "http://www.w3.org/Graphics/SVG/1.1/DTD/svg11.dtd"><svg t="1554965929853" class="icon" style="" viewBox="0 0 1170 1024" version="1.1" xmlns="http://www.w3.org/2000/svg" p-id="27565" xmlns:xlink="http://www.w3.org/1999/xlink" width="146.25" height="128"><defs><style type="text/css"></style></defs><path d="M1021.855779 2.165411L579.576032 1.175509l-67.313354 186.512753 13.640095 134.926073-76.116698 78.748122L495.970204 311.622628 443.267888 178.41192 490.118605 0 150.460388 2.165411C70.180513 2.677326-0.334057 64.797685 0.001232 145.078558L3.06474 874.965824c0.336287 80.287859 62.64824 149.034176 142.930111 149.034176h875.861926c80.287859 0 145.979649-65.682809 145.979648-145.972663V148.14007C1167.836425 67.857201 1102.147629 2.165411 1021.855779 2.165411zM158.110177 76.425045l235.378201-1.267315L382.770091 194.577663l72.06728 121.374789-53.686232 160.214483L561.953377 339.2411l10.634464-155.594273 58.852283-108.490095H1021.855779c36.494663 0 72.992319 36.485682 72.992319 72.98234v654.210636l-180.956528-230.878735c-21.8956-36.492667-65.687798-36.492667-94.881932-7.297536L614.641723 768.544346 402.978267 498.488632c-21.897596-29.192138-58.393256-29.192138-87.58739 0L76.840399 790.58464l2.295137-639.76425c0.157666-43.789205 35.185437-74.158847 78.974641-74.395345z" p-id="27566"></path><path d="M701.449764 290.097243a114.73985 114.73985 0 1 0 229.4797 0 114.73985 114.73985 0 1 0-229.4797 0Z" p-id="27567"></path></svg>